<?xml version="1.0" encoding="UTF-8"?>
<svg id="Capa_1" data-name="Capa 1" xmlns="http://www.w3.org/2000/svg" xmlns:xlink="http://www.w3.org/1999/xlink" viewBox="0 0 1920 1080">
  <defs>
    <style>
      .cls-1 {
        clip-path: url(#clippath-11);
      }

      .cls-2 {
        clip-path: url(#clippath-2);
      }

      .cls-3 {
        clip-path: url(#clippath-6);
      }

      .cls-4 {
        clip-path: url(#clippath-7);
      }

      .cls-5 {
        clip-path: url(#clippath-1);
      }

      .cls-6 {
        clip-path: url(#clippath-4);
      }

      .cls-7 {
        clip-path: url(#clippath-12);
      }

      .cls-8 {
        clip-path: url(#clippath-9);
      }

      .cls-9 {
        clip-path: url(#clippath);
      }

      .cls-10 {
        stroke: #12100b;
        stroke-miterlimit: 10;
      }

      .cls-10, .cls-11 {
        fill: none;
      }

      .cls-12 {
        clip-path: url(#clippath-3);
      }

      .cls-13 {
        clip-path: url(#clippath-8);
      }

      .cls-14 {
        clip-path: url(#clippath-5);
      }

      .cls-15 {
        clip-path: url(#clippath-10);
      }
    </style>
    <clipPath id="clippath">
      <polygon class="cls-10" points="482.96 819.76 242.67 681.03 242.67 403.56 482.96 264.83 723.25 403.56 723.25 681.03 482.96 819.76"/>
    </clipPath>
    <clipPath id="clippath-1">
      <polygon class="cls-10" points="2.29 819.76 -238 681.03 -238 403.56 2.29 264.83 242.58 403.56 242.58 681.03 2.29 819.76"/>
    </clipPath>
    <clipPath id="clippath-2">
      <polygon class="cls-10" points="963.08 819.76 722.79 681.03 722.79 403.56 963.08 264.83 1203.37 403.56 1203.37 681.03 963.08 819.76"/>
    </clipPath>
    <clipPath id="clippath-3">
      <polygon class="cls-10" points="722.88 1235.33 482.59 1096.59 482.59 819.13 722.88 680.4 963.18 819.13 963.18 1096.59 722.88 1235.33"/>
    </clipPath>
    <clipPath id="clippath-4">
      <polygon class="cls-10" points="242.67 1235.33 2.37 1096.59 2.37 819.13 242.67 680.4 482.96 819.13 482.96 1096.59 242.67 1235.33"/>
    </clipPath>
    <clipPath id="clippath-5">
      <polygon class="cls-10" points="722.88 403.73 482.59 264.99 482.59 -12.47 722.88 -151.2 963.18 -12.47 963.18 264.99 722.88 403.73"/>
    </clipPath>
    <clipPath id="clippath-6">
      <polygon class="cls-10" points="242.67 403.73 2.37 264.99 2.37 -12.47 242.67 -151.2 482.96 -12.47 482.96 264.99 242.67 403.73"/>
    </clipPath>
    <clipPath id="clippath-7">
      <polygon class="cls-10" points="1443.58 819.76 1203.29 681.03 1203.29 403.56 1443.58 264.83 1683.88 403.56 1683.88 681.03 1443.58 819.76"/>
    </clipPath>
    <clipPath id="clippath-8">
      <polygon class="cls-10" points="1923.71 819.76 1683.42 681.03 1683.42 403.56 1923.71 264.83 2164 403.56 2164 681.03 1923.71 819.76"/>
    </clipPath>
    <clipPath id="clippath-9">
      <polygon class="cls-10" points="1683.51 1235.33 1443.22 1096.59 1443.22 819.13 1683.51 680.4 1923.8 819.13 1923.8 1096.59 1683.51 1235.33"/>
    </clipPath>
    <clipPath id="clippath-10">
      <polygon class="cls-10" points="1203.29 1235.33 963 1096.59 963 819.13 1203.29 680.4 1443.58 819.13 1443.58 1096.59 1203.29 1235.33"/>
    </clipPath>
    <clipPath id="clippath-11">
      <polygon class="cls-10" points="1683.51 403.73 1443.22 264.99 1443.22 -12.47 1683.51 -151.2 1923.8 -12.47 1923.8 264.99 1683.51 403.73"/>
    </clipPath>
    <clipPath id="clippath-12">
      <polygon class="cls-10" points="1203.29 403.73 963 264.99 963 -12.47 1203.29 -151.2 1443.58 -12.47 1443.58 264.99 1203.29 403.73"/>
    </clipPath>
  </defs>
  <g>
    <g>
      <g class="cls-9">
        <polygon class="cls-10" points="402.83 495.92 482.92 449.68 563.01 495.92 563.01 588.41 482.92 634.65 402.83 588.41 402.83 495.92"/>
        <polygon class="cls-10" points="563.02 495.92 643.11 449.67 723.2 495.92 723.2 588.4 643.11 634.64 563.02 588.4 563.02 495.92"/>
        <polygon class="cls-10" points="242.62 495.93 322.71 449.69 402.8 495.93 402.8 588.41 322.71 634.65 242.62 588.41 242.62 495.93"/>
        <polygon class="cls-10" points="322.74 634.66 402.83 588.42 482.93 634.66 482.93 727.14 402.83 773.38 322.74 727.14 322.74 634.66"/>
        <polygon class="cls-10" points="482.93 357.21 563.02 310.97 643.11 357.21 643.11 449.69 563.02 495.93 482.93 449.69 482.93 357.21"/>
        <polygon class="cls-10" points="482.93 634.65 563.02 588.41 643.11 634.65 643.11 727.13 563.02 773.37 482.93 727.13 482.93 634.65"/>
        <polygon class="cls-10" points="643.3 634.65 723.39 588.41 803.48 634.65 803.48 727.13 723.39 773.37 643.3 727.13 643.3 634.65"/>
        <polygon class="cls-10" points="162.75 357.21 242.84 310.97 322.93 357.21 322.93 449.69 242.84 495.93 162.75 449.69 162.75 357.21"/>
        <polygon class="cls-10" points="643.1 357.21 723.19 310.97 803.28 357.21 803.28 449.69 723.19 495.93 643.1 449.69 643.1 357.21"/>
        <polygon class="cls-10" points="402.81 773.4 482.9 727.16 562.99 773.4 562.99 865.88 482.9 912.12 402.81 865.88 402.81 773.4"/>
        <polygon class="cls-10" points="162.53 634.67 242.62 588.43 322.71 634.67 322.71 727.15 242.62 773.39 162.53 727.15 162.53 634.67"/>
        <polygon class="cls-10" points="402.84 218.45 482.93 172.21 563.02 218.45 563.02 310.93 482.93 357.17 402.84 310.93 402.84 218.45"/>
        <polygon class="cls-10" points="322.75 357.16 402.84 310.92 482.93 357.16 482.93 449.64 402.84 495.88 322.75 449.64 322.75 357.16"/>
      </g>
      <polygon class="cls-10" points="482.96 819.76 242.67 681.03 242.67 403.56 482.96 264.83 723.25 403.56 723.25 681.03 482.96 819.76"/>
    </g>
    <g>
      <g class="cls-5">
        <polygon class="cls-10" points="-77.83 495.92 2.26 449.68 82.35 495.92 82.35 588.41 2.26 634.65 -77.83 588.41 -77.83 495.92"/>
        <polygon class="cls-10" points="82.35 495.92 162.44 449.67 242.53 495.92 242.53 588.4 162.44 634.64 82.35 588.4 82.35 495.92"/>
        <polygon class="cls-10" points="-157.92 634.66 -77.83 588.42 2.26 634.66 2.26 727.14 -77.83 773.38 -157.92 727.14 -157.92 634.66"/>
        <polygon class="cls-10" points="2.26 357.21 82.36 310.97 162.45 357.21 162.45 449.69 82.36 495.93 2.26 449.69 2.26 357.21"/>
        <polygon class="cls-10" points="2.26 634.65 82.36 588.41 162.45 634.65 162.45 727.13 82.36 773.37 2.26 727.13 2.26 634.65"/>
        <polygon class="cls-10" points="162.63 634.65 242.72 588.41 322.81 634.65 322.81 727.13 242.72 773.37 162.63 727.13 162.63 634.65"/>
        <polygon class="cls-10" points="162.43 357.21 242.52 310.97 322.62 357.21 322.62 449.69 242.52 495.93 162.43 449.69 162.43 357.21"/>
        <polygon class="cls-10" points="-77.85 773.4 2.24 727.16 82.33 773.4 82.33 865.88 2.24 912.12 -77.85 865.88 -77.85 773.4"/>
        <polygon class="cls-10" points="-77.83 218.45 2.27 172.21 82.36 218.45 82.36 310.93 2.27 357.17 -77.83 310.93 -77.83 218.45"/>
        <polygon class="cls-10" points="-157.91 357.16 -77.82 310.92 2.27 357.16 2.27 449.64 -77.82 495.88 -157.91 449.64 -157.91 357.16"/>
      </g>
      <polygon class="cls-10" points="2.29 819.76 -238 681.03 -238 403.56 2.29 264.83 242.58 403.56 242.58 681.03 2.29 819.76"/>
    </g>
    <g>
      <g class="cls-2">
        <polygon class="cls-10" points="882.96 495.92 963.05 449.68 1043.14 495.92 1043.14 588.41 963.05 634.65 882.96 588.41 882.96 495.92"/>
        <polygon class="cls-10" points="1043.14 495.92 1123.23 449.67 1203.32 495.92 1203.32 588.4 1123.23 634.64 1043.14 588.4 1043.14 495.92"/>
        <polygon class="cls-10" points="722.75 495.93 802.84 449.69 882.93 495.93 882.93 588.41 802.84 634.65 722.75 588.41 722.75 495.93"/>
        <polygon class="cls-10" points="802.87 634.66 882.96 588.42 963.05 634.66 963.05 727.14 882.96 773.38 802.87 727.14 802.87 634.66"/>
        <polygon class="cls-10" points="963.05 357.21 1043.15 310.97 1123.24 357.21 1123.24 449.69 1043.15 495.93 963.05 449.69 963.05 357.21"/>
        <polygon class="cls-10" points="963.05 634.65 1043.15 588.41 1123.24 634.65 1123.24 727.13 1043.15 773.37 963.05 727.13 963.05 634.65"/>
        <polygon class="cls-10" points="1123.42 634.65 1203.51 588.41 1283.6 634.65 1283.6 727.13 1203.51 773.37 1123.42 727.13 1123.42 634.65"/>
        <polygon class="cls-10" points="642.88 357.21 722.97 310.97 803.06 357.21 803.06 449.69 722.97 495.93 642.88 449.69 642.88 357.21"/>
        <polygon class="cls-10" points="1123.22 357.21 1203.31 310.97 1283.41 357.21 1283.41 449.69 1203.31 495.93 1123.22 449.69 1123.22 357.21"/>
        <polygon class="cls-10" points="882.94 773.4 963.03 727.16 1043.12 773.4 1043.12 865.88 963.03 912.12 882.94 865.88 882.94 773.4"/>
        <polygon class="cls-10" points="642.66 634.67 722.75 588.43 802.84 634.67 802.84 727.15 722.75 773.39 642.66 727.15 642.66 634.67"/>
        <polygon class="cls-10" points="882.96 218.45 963.05 172.21 1043.15 218.45 1043.15 310.93 963.05 357.17 882.96 310.93 882.96 218.45"/>
        <polygon class="cls-10" points="802.88 357.16 882.97 310.92 963.06 357.16 963.06 449.64 882.97 495.88 802.88 449.64 802.88 357.16"/>
      </g>
      <polygon class="cls-10" points="963.08 819.76 722.79 681.03 722.79 403.56 963.08 264.83 1203.37 403.56 1203.37 681.03 963.08 819.76"/>
    </g>
    <g>
      <g class="cls-12">
        <polygon class="cls-10" points="642.76 911.49 722.85 865.25 802.94 911.49 802.94 1003.97 722.85 1050.21 642.76 1003.97 642.76 911.49"/>
        <polygon class="cls-10" points="802.94 911.48 883.03 865.24 963.13 911.48 963.13 1003.96 883.03 1050.2 802.94 1003.96 802.94 911.48"/>
        <polygon class="cls-10" points="482.55 911.5 562.64 865.26 642.73 911.5 642.73 1003.98 562.64 1050.22 482.55 1003.98 482.55 911.5"/>
        <polygon class="cls-10" points="562.67 1050.23 642.76 1003.99 722.85 1050.23 722.85 1142.71 642.76 1188.95 562.67 1142.71 562.67 1050.23"/>
        <polygon class="cls-10" points="722.86 772.77 802.95 726.53 883.04 772.77 883.04 865.26 802.95 911.5 722.86 865.26 722.86 772.77"/>
        <polygon class="cls-10" points="722.86 1050.22 802.95 1003.98 883.04 1050.22 883.04 1142.7 802.95 1188.94 722.86 1142.7 722.86 1050.22"/>
        <polygon class="cls-10" points="883.22 1050.22 963.31 1003.98 1043.4 1050.22 1043.4 1142.7 963.31 1188.94 883.22 1142.7 883.22 1050.22"/>
        <polygon class="cls-10" points="402.68 772.77 482.77 726.53 562.86 772.77 562.86 865.26 482.77 911.5 402.68 865.26 402.68 772.77"/>
        <polygon class="cls-10" points="883.03 772.77 963.12 726.53 1043.21 772.77 1043.21 865.26 963.12 911.5 883.03 865.26 883.03 772.77"/>
        <polygon class="cls-10" points="402.46 1050.24 482.55 1004 562.64 1050.24 562.64 1142.72 482.55 1188.96 402.46 1142.72 402.46 1050.24"/>
        <polygon class="cls-10" points="642.77 634.01 722.86 587.77 802.95 634.01 802.95 726.49 722.86 772.73 642.77 726.49 642.77 634.01"/>
        <polygon class="cls-10" points="562.68 772.73 642.77 726.49 722.86 772.73 722.86 865.21 642.77 911.45 562.68 865.21 562.68 772.73"/>
      </g>
      <polygon class="cls-10" points="722.88 1235.33 482.59 1096.59 482.59 819.13 722.88 680.4 963.18 819.13 963.18 1096.59 722.88 1235.33"/>
    </g>
    <g>
      <g class="cls-6">
        <polygon class="cls-10" points="162.54 911.49 242.63 865.25 322.72 911.49 322.72 1003.97 242.63 1050.21 162.54 1003.97 162.54 911.49"/>
        <polygon class="cls-10" points="322.73 911.48 402.82 865.24 482.91 911.48 482.91 1003.96 402.82 1050.2 322.73 1003.96 322.73 911.48"/>
        <polygon class="cls-10" points="2.33 911.5 82.42 865.26 162.51 911.5 162.51 1003.98 82.42 1050.22 2.33 1003.98 2.33 911.5"/>
        <polygon class="cls-10" points="82.45 1050.23 162.54 1003.99 242.63 1050.23 242.63 1142.71 162.54 1188.95 82.45 1142.71 82.45 1050.23"/>
        <polygon class="cls-10" points="242.64 772.77 322.73 726.53 402.82 772.77 402.82 865.26 322.73 911.5 242.64 865.26 242.64 772.77"/>
        <polygon class="cls-10" points="242.64 1050.22 322.73 1003.98 402.82 1050.22 402.82 1142.7 322.73 1188.94 242.64 1142.7 242.64 1050.22"/>
        <polygon class="cls-10" points="403 1050.22 483.09 1003.98 563.19 1050.22 563.19 1142.7 483.09 1188.94 403 1142.7 403 1050.22"/>
        <polygon class="cls-10" points="-77.54 772.77 2.55 726.53 82.64 772.77 82.64 865.26 2.55 911.5 -77.54 865.26 -77.54 772.77"/>
        <polygon class="cls-10" points="402.81 772.77 482.9 726.53 562.99 772.77 562.99 865.26 482.9 911.5 402.81 865.26 402.81 772.77"/>
        <polygon class="cls-10" points="-77.76 1050.24 2.33 1004 82.42 1050.24 82.42 1142.72 2.33 1188.96 -77.76 1142.72 -77.76 1050.24"/>
        <polygon class="cls-10" points="162.55 634.01 242.64 587.77 322.73 634.01 322.73 726.49 242.64 772.73 162.55 726.49 162.55 634.01"/>
        <polygon class="cls-10" points="82.46 772.73 162.55 726.49 242.64 772.73 242.64 865.21 162.55 911.45 82.46 865.21 82.46 772.73"/>
      </g>
      <polygon class="cls-10" points="242.67 1235.33 2.37 1096.59 2.37 819.13 242.67 680.4 482.96 819.13 482.96 1096.59 242.67 1235.33"/>
    </g>
    <g>
      <g class="cls-14">
        <polygon class="cls-10" points="642.76 79.89 722.85 33.65 802.94 79.89 802.94 172.37 722.85 218.61 642.76 172.37 642.76 79.89"/>
        <polygon class="cls-10" points="802.94 79.88 883.03 33.64 963.13 79.88 963.13 172.36 883.03 218.6 802.94 172.36 802.94 79.88"/>
        <polygon class="cls-10" points="482.55 79.9 562.64 33.66 642.73 79.9 642.73 172.38 562.64 218.62 482.55 172.38 482.55 79.9"/>
        <polygon class="cls-10" points="562.67 218.63 642.76 172.39 722.85 218.63 722.85 311.11 642.76 357.35 562.67 311.11 562.67 218.63"/>
        <polygon class="cls-10" points="722.86 -58.83 802.95 -105.07 883.04 -58.83 883.04 33.66 802.95 79.9 722.86 33.66 722.86 -58.83"/>
        <polygon class="cls-10" points="722.86 218.62 802.95 172.38 883.04 218.62 883.04 311.1 802.95 357.34 722.86 311.1 722.86 218.62"/>
        <polygon class="cls-10" points="883.22 218.62 963.31 172.38 1043.4 218.62 1043.4 311.1 963.31 357.34 883.22 311.1 883.22 218.62"/>
        <polygon class="cls-10" points="402.68 -58.83 482.77 -105.07 562.86 -58.83 562.86 33.66 482.77 79.9 402.68 33.66 402.68 -58.83"/>
        <polygon class="cls-10" points="883.03 -58.83 963.12 -105.07 1043.21 -58.83 1043.21 33.66 963.12 79.9 883.03 33.66 883.03 -58.83"/>
        <polygon class="cls-10" points="642.74 357.36 722.83 311.12 802.92 357.36 802.92 449.84 722.83 496.08 642.74 449.84 642.74 357.36"/>
        <polygon class="cls-10" points="402.46 218.64 482.55 172.4 562.64 218.64 562.64 311.12 482.55 357.36 402.46 311.12 402.46 218.64"/>
        <polygon class="cls-10" points="562.68 -58.87 642.77 -105.11 722.86 -58.87 722.86 33.61 642.77 79.85 562.68 33.61 562.68 -58.87"/>
      </g>
      <polygon class="cls-10" points="722.88 403.73 482.59 264.99 482.59 -12.47 722.88 -151.2 963.18 -12.47 963.18 264.99 722.88 403.73"/>
    </g>
    <g>
      <g class="cls-3">
        <polygon class="cls-10" points="162.54 79.89 242.63 33.65 322.72 79.89 322.72 172.37 242.63 218.61 162.54 172.37 162.54 79.89"/>
        <polygon class="cls-10" points="322.73 79.88 402.82 33.64 482.91 79.88 482.91 172.36 402.82 218.6 322.73 172.36 322.73 79.88"/>
        <polygon class="cls-10" points="2.33 79.9 82.42 33.66 162.51 79.9 162.51 172.38 82.42 218.62 2.33 172.38 2.33 79.9"/>
        <polygon class="cls-10" points="82.45 218.63 162.54 172.39 242.63 218.63 242.63 311.11 162.54 357.35 82.45 311.11 82.45 218.63"/>
        <polygon class="cls-10" points="242.64 -58.83 322.73 -105.07 402.82 -58.83 402.82 33.66 322.73 79.9 242.64 33.66 242.64 -58.83"/>
        <polygon class="cls-10" points="242.64 218.62 322.73 172.38 402.82 218.62 402.82 311.1 322.73 357.34 242.64 311.1 242.64 218.62"/>
        <polygon class="cls-10" points="403 218.62 483.09 172.38 563.19 218.62 563.19 311.1 483.09 357.34 403 311.1 403 218.62"/>
        <polygon class="cls-10" points="-77.54 -58.83 2.55 -105.07 82.64 -58.83 82.64 33.66 2.55 79.9 -77.54 33.66 -77.54 -58.83"/>
        <polygon class="cls-10" points="402.81 -58.83 482.9 -105.07 562.99 -58.83 562.99 33.66 482.9 79.9 402.81 33.66 402.81 -58.83"/>
        <polygon class="cls-10" points="162.52 357.36 242.61 311.12 322.7 357.36 322.7 449.84 242.61 496.08 162.52 449.84 162.52 357.36"/>
        <polygon class="cls-10" points="-77.76 218.64 2.33 172.4 82.42 218.64 82.42 311.12 2.33 357.36 -77.76 311.12 -77.76 218.64"/>
        <polygon class="cls-10" points="82.46 -58.87 162.55 -105.11 242.64 -58.87 242.64 33.61 162.55 79.85 82.46 33.61 82.46 -58.87"/>
      </g>
      <polygon class="cls-10" points="242.67 403.73 2.37 264.99 2.37 -12.47 242.67 -151.2 482.96 -12.47 482.96 264.99 242.67 403.73"/>
    </g>
  </g>
  <g>
    <g>
      <g class="cls-4">
        <polygon class="cls-10" points="1363.46 495.92 1443.55 449.68 1523.64 495.92 1523.64 588.41 1443.55 634.65 1363.46 588.41 1363.46 495.92"/>
        <polygon class="cls-10" points="1523.64 495.92 1603.73 449.67 1683.83 495.92 1683.83 588.4 1603.73 634.64 1523.64 588.4 1523.64 495.92"/>
        <polygon class="cls-10" points="1203.25 495.93 1283.34 449.69 1363.43 495.93 1363.43 588.41 1283.34 634.65 1203.25 588.41 1203.25 495.93"/>
        <polygon class="cls-10" points="1283.37 634.66 1363.46 588.42 1443.55 634.66 1443.55 727.14 1363.46 773.38 1283.37 727.14 1283.37 634.66"/>
        <polygon class="cls-10" points="1443.56 357.21 1523.65 310.97 1603.74 357.21 1603.74 449.69 1523.65 495.93 1443.56 449.69 1443.56 357.21"/>
        <polygon class="cls-10" points="1443.56 634.65 1523.65 588.41 1603.74 634.65 1603.74 727.13 1523.65 773.37 1443.56 727.13 1443.56 634.65"/>
        <polygon class="cls-10" points="1603.92 634.65 1684.01 588.41 1764.1 634.65 1764.1 727.13 1684.01 773.37 1603.92 727.13 1603.92 634.65"/>
        <polygon class="cls-10" points="1123.38 357.21 1203.47 310.97 1283.56 357.21 1283.56 449.69 1203.47 495.93 1123.38 449.69 1123.38 357.21"/>
        <polygon class="cls-10" points="1603.73 357.21 1683.82 310.97 1763.91 357.21 1763.91 449.69 1683.82 495.93 1603.73 449.69 1603.73 357.21"/>
        <polygon class="cls-10" points="1363.44 773.4 1443.53 727.16 1523.62 773.4 1523.62 865.88 1443.53 912.12 1363.44 865.88 1363.44 773.4"/>
        <polygon class="cls-10" points="1123.16 634.67 1203.25 588.43 1283.34 634.67 1283.34 727.15 1203.25 773.39 1123.16 727.15 1123.16 634.67"/>
        <polygon class="cls-10" points="1363.47 218.45 1443.56 172.21 1523.65 218.45 1523.65 310.93 1443.56 357.17 1363.47 310.93 1363.47 218.45"/>
        <polygon class="cls-10" points="1283.38 357.16 1363.47 310.92 1443.56 357.16 1443.56 449.64 1363.47 495.88 1283.38 449.64 1283.38 357.16"/>
      </g>
      <polygon class="cls-10" points="1443.58 819.76 1203.29 681.03 1203.29 403.56 1443.58 264.83 1683.88 403.56 1683.88 681.03 1443.58 819.76"/>
    </g>
    <g>
      <g class="cls-13">
        <polygon class="cls-10" points="1843.58 495.92 1923.67 449.68 2003.76 495.92 2003.76 588.41 1923.67 634.65 1843.58 588.41 1843.58 495.92"/>
        <polygon class="cls-10" points="1683.37 495.93 1763.46 449.69 1843.55 495.93 1843.55 588.41 1763.46 634.65 1683.37 588.41 1683.37 495.93"/>
        <polygon class="cls-10" points="1763.49 634.66 1843.59 588.42 1923.68 634.66 1923.68 727.14 1843.59 773.38 1763.49 727.14 1763.49 634.66"/>
        <polygon class="cls-10" points="1603.5 357.21 1683.59 310.97 1763.68 357.21 1763.68 449.69 1683.59 495.93 1603.5 449.69 1603.5 357.21"/>
        <polygon class="cls-10" points="1843.56 773.4 1923.66 727.16 2003.75 773.4 2003.75 865.88 1923.66 912.12 1843.56 865.88 1843.56 773.4"/>
        <polygon class="cls-10" points="1603.28 634.67 1683.37 588.43 1763.47 634.67 1763.47 727.15 1683.37 773.39 1603.28 727.15 1603.28 634.67"/>
        <polygon class="cls-10" points="1843.59 218.45 1923.68 172.21 2003.77 218.45 2003.77 310.93 1923.68 357.17 1843.59 310.93 1843.59 218.45"/>
        <polygon class="cls-10" points="1763.5 357.16 1843.59 310.92 1923.69 357.16 1923.69 449.64 1843.59 495.88 1763.5 449.64 1763.5 357.16"/>
      </g>
      <polygon class="cls-10" points="1923.71 819.76 1683.42 681.03 1683.42 403.56 1923.71 264.83 2164 403.56 2164 681.03 1923.71 819.76"/>
    </g>
    <g>
      <g class="cls-8">
        <polygon class="cls-10" points="1603.38 911.49 1683.48 865.25 1763.57 911.49 1763.57 1003.97 1683.48 1050.21 1603.38 1003.97 1603.38 911.49"/>
        <polygon class="cls-10" points="1763.57 911.48 1843.66 865.24 1923.75 911.48 1923.75 1003.96 1843.66 1050.2 1763.57 1003.96 1763.57 911.48"/>
        <polygon class="cls-10" points="1443.17 911.5 1523.27 865.26 1603.36 911.5 1603.36 1003.98 1523.27 1050.22 1443.17 1003.98 1443.17 911.5"/>
        <polygon class="cls-10" points="1523.3 1050.23 1603.39 1003.99 1683.48 1050.23 1683.48 1142.71 1603.39 1188.95 1523.3 1142.71 1523.3 1050.23"/>
        <polygon class="cls-10" points="1683.48 772.77 1763.57 726.53 1843.67 772.77 1843.67 865.26 1763.57 911.5 1683.48 865.26 1683.48 772.77"/>
        <polygon class="cls-10" points="1683.48 1050.22 1763.57 1003.98 1843.67 1050.22 1843.67 1142.7 1763.57 1188.94 1683.48 1142.7 1683.48 1050.22"/>
        <polygon class="cls-10" points="1843.85 1050.22 1923.94 1003.98 2004.03 1050.22 2004.03 1142.7 1923.94 1188.94 1843.85 1142.7 1843.85 1050.22"/>
        <polygon class="cls-10" points="1363.31 772.77 1443.4 726.53 1523.49 772.77 1523.49 865.26 1443.4 911.5 1363.31 865.26 1363.31 772.77"/>
        <polygon class="cls-10" points="1843.65 772.77 1923.74 726.53 2003.83 772.77 2003.83 865.26 1923.74 911.5 1843.65 865.26 1843.65 772.77"/>
        <polygon class="cls-10" points="1363.09 1050.24 1443.18 1004 1523.27 1050.24 1523.27 1142.72 1443.18 1188.96 1363.09 1142.72 1363.09 1050.24"/>
        <polygon class="cls-10" points="1603.39 634.01 1683.48 587.77 1763.57 634.01 1763.57 726.49 1683.48 772.73 1603.39 726.49 1603.39 634.01"/>
        <polygon class="cls-10" points="1523.31 772.73 1603.4 726.49 1683.49 772.73 1683.49 865.21 1603.4 911.45 1523.31 865.21 1523.31 772.73"/>
      </g>
      <polygon class="cls-10" points="1683.51 1235.33 1443.22 1096.59 1443.22 819.13 1683.51 680.4 1923.8 819.13 1923.8 1096.59 1683.51 1235.33"/>
    </g>
    <g>
      <g class="cls-15">
        <polygon class="cls-10" points="1123.17 911.49 1203.26 865.25 1283.35 911.49 1283.35 1003.97 1203.26 1050.21 1123.17 1003.97 1123.17 911.49"/>
        <polygon class="cls-10" points="1283.35 911.48 1363.44 865.24 1443.53 911.48 1443.53 1003.96 1363.44 1050.2 1283.35 1003.96 1283.35 911.48"/>
        <polygon class="cls-10" points="962.96 911.5 1043.05 865.26 1123.14 911.5 1123.14 1003.98 1043.05 1050.22 962.96 1003.98 962.96 911.5"/>
        <polygon class="cls-10" points="1043.08 1050.23 1123.17 1003.99 1203.26 1050.23 1203.26 1142.71 1123.17 1188.95 1043.08 1142.71 1043.08 1050.23"/>
        <polygon class="cls-10" points="1203.27 772.77 1283.36 726.53 1363.45 772.77 1363.45 865.26 1283.36 911.5 1203.27 865.26 1203.27 772.77"/>
        <polygon class="cls-10" points="1203.27 1050.22 1283.36 1003.98 1363.45 1050.22 1363.45 1142.7 1283.36 1188.94 1203.27 1142.7 1203.27 1050.22"/>
        <polygon class="cls-10" points="1363.63 1050.22 1443.72 1003.98 1523.81 1050.22 1523.81 1142.7 1443.72 1188.94 1363.63 1142.7 1363.63 1050.22"/>
        <polygon class="cls-10" points="883.09 772.77 963.18 726.53 1043.27 772.77 1043.27 865.26 963.18 911.5 883.09 865.26 883.09 772.77"/>
        <polygon class="cls-10" points="1363.43 772.77 1443.53 726.53 1523.62 772.77 1523.62 865.26 1443.53 911.5 1363.43 865.26 1363.43 772.77"/>
        <polygon class="cls-10" points="882.87 1050.24 962.96 1004 1043.05 1050.24 1043.05 1142.72 962.96 1188.96 882.87 1142.72 882.87 1050.24"/>
        <polygon class="cls-10" points="1123.17 634.01 1203.27 587.77 1283.36 634.01 1283.36 726.49 1203.27 772.73 1123.17 726.49 1123.17 634.01"/>
        <polygon class="cls-10" points="1043.09 772.73 1123.18 726.49 1203.27 772.73 1203.27 865.21 1123.18 911.45 1043.09 865.21 1043.09 772.73"/>
      </g>
      <polygon class="cls-10" points="1203.29 1235.33 963 1096.59 963 819.13 1203.29 680.4 1443.58 819.13 1443.58 1096.59 1203.29 1235.33"/>
    </g>
    <g>
      <g class="cls-1">
        <polygon class="cls-10" points="1603.38 79.89 1683.48 33.65 1763.57 79.89 1763.57 172.37 1683.48 218.61 1603.38 172.37 1603.38 79.89"/>
        <polygon class="cls-10" points="1763.57 79.88 1843.66 33.64 1923.75 79.88 1923.75 172.36 1843.66 218.6 1763.57 172.36 1763.57 79.88"/>
        <polygon class="cls-10" points="1443.17 79.9 1523.27 33.66 1603.36 79.9 1603.36 172.38 1523.27 218.62 1443.17 172.38 1443.17 79.9"/>
        <polygon class="cls-10" points="1523.3 218.63 1603.39 172.39 1683.48 218.63 1683.48 311.11 1603.39 357.35 1523.3 311.11 1523.3 218.63"/>
        <polygon class="cls-10" points="1683.48 -58.83 1763.57 -105.07 1843.67 -58.83 1843.67 33.66 1763.57 79.9 1683.48 33.66 1683.48 -58.83"/>
        <polygon class="cls-10" points="1683.48 218.62 1763.57 172.38 1843.67 218.62 1843.67 311.1 1763.57 357.34 1683.48 311.1 1683.48 218.62"/>
        <polygon class="cls-10" points="1843.85 218.62 1923.94 172.38 2004.03 218.62 2004.03 311.1 1923.94 357.34 1843.85 311.1 1843.85 218.62"/>
        <polygon class="cls-10" points="1363.31 -58.83 1443.4 -105.07 1523.49 -58.83 1523.49 33.66 1443.4 79.9 1363.31 33.66 1363.31 -58.83"/>
        <polygon class="cls-10" points="1843.65 -58.83 1923.74 -105.07 2003.83 -58.83 2003.83 33.66 1923.74 79.9 1843.65 33.66 1843.65 -58.83"/>
        <polygon class="cls-10" points="1603.37 357.36 1683.46 311.12 1763.55 357.36 1763.55 449.84 1683.46 496.08 1603.37 449.84 1603.37 357.36"/>
        <polygon class="cls-10" points="1363.09 218.64 1443.18 172.4 1523.27 218.64 1523.27 311.12 1443.18 357.36 1363.09 311.12 1363.09 218.64"/>
        <polygon class="cls-10" points="1523.31 -58.87 1603.4 -105.11 1683.49 -58.87 1683.49 33.61 1603.4 79.85 1523.31 33.61 1523.31 -58.87"/>
      </g>
      <polygon class="cls-10" points="1683.51 403.73 1443.22 264.99 1443.22 -12.47 1683.51 -151.2 1923.8 -12.47 1923.8 264.99 1683.51 403.73"/>
    </g>
    <g>
      <g class="cls-7">
        <polygon class="cls-10" points="1123.17 79.89 1203.26 33.65 1283.35 79.89 1283.35 172.37 1203.26 218.61 1123.17 172.37 1123.17 79.89"/>
        <polygon class="cls-10" points="1283.35 79.88 1363.44 33.64 1443.53 79.88 1443.53 172.36 1363.44 218.6 1283.35 172.36 1283.35 79.88"/>
        <polygon class="cls-10" points="962.96 79.9 1043.05 33.66 1123.14 79.9 1123.14 172.38 1043.05 218.62 962.96 172.38 962.96 79.9"/>
        <polygon class="cls-10" points="1043.08 218.63 1123.17 172.39 1203.26 218.63 1203.26 311.11 1123.17 357.35 1043.08 311.11 1043.08 218.63"/>
        <polygon class="cls-10" points="1203.27 -58.83 1283.36 -105.07 1363.45 -58.83 1363.45 33.66 1283.36 79.9 1203.27 33.66 1203.27 -58.83"/>
        <polygon class="cls-10" points="1203.27 218.62 1283.36 172.38 1363.45 218.62 1363.45 311.1 1283.36 357.34 1203.27 311.1 1203.27 218.62"/>
        <polygon class="cls-10" points="1363.63 218.62 1443.72 172.38 1523.81 218.62 1523.81 311.1 1443.72 357.34 1363.63 311.1 1363.63 218.62"/>
        <polygon class="cls-10" points="883.09 -58.83 963.18 -105.07 1043.27 -58.83 1043.27 33.66 963.18 79.9 883.09 33.66 883.09 -58.83"/>
        <polygon class="cls-10" points="1363.43 -58.83 1443.53 -105.07 1523.62 -58.83 1523.62 33.66 1443.53 79.9 1363.43 33.66 1363.43 -58.83"/>
        <polygon class="cls-10" points="1123.15 357.36 1203.24 311.12 1283.33 357.36 1283.33 449.84 1203.24 496.08 1123.15 449.84 1123.15 357.36"/>
        <polygon class="cls-10" points="882.87 218.64 962.96 172.4 1043.05 218.64 1043.05 311.12 962.96 357.36 882.87 311.12 882.87 218.64"/>
        <polygon class="cls-10" points="1043.09 -58.87 1123.18 -105.11 1203.27 -58.87 1203.27 33.61 1123.18 79.85 1043.09 33.61 1043.09 -58.87"/>
      </g>
      <polygon class="cls-10" points="1203.29 403.73 963 264.99 963 -12.47 1203.29 -151.2 1443.58 -12.47 1443.58 264.99 1203.29 403.73"/>
    </g>
  </g>
  <rect class="cls-11" x="-.93" y="540.11" width="1006.73" height="512.34"/>
</svg>