<?xml version="1.0" encoding="UTF-8"?>
<svg id="Capa_2" data-name="Capa 2" xmlns="http://www.w3.org/2000/svg" viewBox="0 0 229.18 229.77">
  <defs>
    <style>
      .cls-1 {
        fill: #fff;
      }
    </style>
  </defs>
  <g id="Capa_1-2" data-name="Capa 1">
    <g>
      <path class="cls-1" d="M114.59,229.77c-3.01,0-6.02-.78-8.71-2.33L21.47,178.71c-5.37-3.1-8.71-8.88-8.71-15.08V66.15c0-6.2,3.34-11.98,8.71-15.08L105.88,2.33c5.37-3.1,12.05-3.1,17.42,0l84.42,48.74c5.37,3.1,8.71,8.88,8.71,15.08v97.48c0,6.2-3.34,11.98-8.71,15.08l-84.42,48.74c-2.69,1.55-5.7,2.33-8.71,2.33Zm0-227.65c-2.64,0-5.29,.68-7.65,2.04L22.53,52.9c-4.72,2.72-7.65,7.8-7.65,13.25v97.48c0,5.45,2.93,10.52,7.65,13.25l84.42,48.74c4.72,2.72,10.58,2.72,15.3,0l84.42-48.74c4.72-2.72,7.65-7.8,7.65-13.25V66.15c0-5.45-2.93-10.52-7.65-13.25L122.24,4.16c-2.36-1.36-5-2.04-7.65-2.04Z"/>
      <path class="cls-1" d="M228.79,113.41L172.97,16.73c-.53-.91-1.5-1.48-2.56-1.48H58.77c-1.06,0-2.03,.56-2.56,1.48L.4,113.41c-.53,.91-.53,2.04,0,2.96l55.82,96.68c.53,.91,1.5,1.48,2.56,1.48h111.64c1.06,0,2.03-.56,2.56-1.48l55.82-96.68c.53-.91,.53-2.04,0-2.96Zm-136.46-2.47v44.14c0,1.71-.6,3.18-1.78,4.35-1.13,1.12-2.66,1.74-4.33,1.74s-3.21-.62-4.35-1.76c-1.16-1.17-1.75-2.63-1.75-4.33V87.15c0-1.71,.6-3.18,1.78-4.35,1.13-1.12,2.66-1.74,4.33-1.74s3.21,.62,4.35,1.76c1.16,1.17,1.75,2.63,1.75,4.33v23.79Zm28.5-27.31c-.02,.36-.05,.71-.05,1.07v70.4c0,1.69-.58,3.13-1.73,4.3-1.14,1.14-2.69,1.77-4.36,1.77,0,0-.02,0-.03,0,0,0-.02,0-.03,0-1.67,0-3.22-.63-4.36-1.77-1.15-1.17-1.73-2.62-1.73-4.3V84.71c0-.36-.04-.71-.05-1.07-.48-5.9-2.77-10.95-6.86-14.99-3.65-3.59-8.31-5.77-13.3-6.29-.69-.06-1.39-.1-2.08-.1-3.01,0-6.01,.6-8.69,1.73-2.73,1.17-5.09,2.79-7.21,4.93-.51,.5-.98,1.02-1.43,1.56-1.33,1.64-2.43,3.47-3.33,5.53-1.2,2.74-1.79,5.59-1.79,8.71v70.38c0,1.7-.59,3.16-1.76,4.33-1.14,1.13-2.68,1.76-4.35,1.76s-3.21-.62-4.33-1.74c-1.18-1.17-1.78-2.64-1.78-4.35V84.71c0-4.74,.89-9.29,2.65-13.52,1.74-4.21,4.2-7.92,7.3-11,3.04-3.05,6.75-5.55,11.02-7.41,2.6-1.13,5.44-1.92,8.39-2.35,1.75-.26,3.54-.4,5.34-.4,5.73,0,11.43,1.39,16.05,3.9,3.53,1.94,6.68,4.39,9.39,7.28l2.94,3.15,2.94-3.15c2.7-2.9,5.86-5.35,9.39-7.28,4.62-2.52,10.32-3.9,16.05-3.9,1.8,0,3.59,.13,5.34,.4,2.95,.43,5.79,1.22,8.39,2.35,4.27,1.86,7.97,4.36,11.02,7.41,3.1,3.09,5.55,6.79,7.3,11,1.76,4.23,2.65,8.78,2.65,13.52v70.38c0,1.71-.6,3.18-1.77,4.35-1.13,1.12-2.67,1.74-4.33,1.74s-3.21-.63-4.35-1.76c-1.17-1.17-1.76-2.63-1.76-4.33V84.71c0-3.13-.59-5.97-1.79-8.71-.9-2.06-2-3.89-3.32-5.53-.45-.54-.93-1.06-1.43-1.56-2.11-2.14-4.47-3.75-7.21-4.93-2.67-1.13-5.68-1.73-8.68-1.73-.7,0-1.39,.04-2.09,.1-5,.52-9.65,2.7-13.3,6.29-4.09,4.04-6.38,9.09-6.86,14.99Zm55.29,105.24c-1.19,1.18-2.65,1.77-4.34,1.77h-.09c-6.53-.16-11.82-1.41-16.2-3.83-4.32-2.35-7.92-5.34-10.7-8.87-2.74-3.51-4.72-7.28-5.91-11.22-1.2-3.93-1.81-7.5-1.81-10.61V87.12c0-1.75,.56-3.13,1.76-4.34,1.13-1.12,2.68-1.73,4.36-1.73s3.22,.63,4.3,1.73c1.22,1.21,1.8,2.59,1.8,4.34v68.99c0,1.25,.25,2.99,.76,5.3,.53,2.41,1.61,4.86,3.23,7.3,1.58,2.45,3.87,4.66,6.81,6.59,2.88,1.92,6.81,2.96,11.67,3.12,1.71,0,3.15,.58,4.35,1.76,1.19,1.19,1.8,2.65,1.8,4.34s-.6,3.17-1.79,4.35Z"/>
    </g>
  </g>
</svg>